# File created by Blade
# Date/Time:  Wed Apr 08 17:00:17 2015
# Frame Rate: 120.000 fps
#------------------------------------------------------
:FULLY-SPECIFIED
:DEGREES
1850
root 0.833667 35.643410 2.970086 -32.715532 -81.412878 19.816789
Spine 7.631878 -1.231396 -6.548181
Head 0.635575 11.469988 -4.689310
LeftShoulder 6.082784 -0.166637 25.256493
LeftArm 93.935904 44.911869 -35.863822
LeftForeArm -40.540885 -0.000000 97.274814
LeftHand -36.322402 -0.000000 24.695385
LeftHandThumb1 -26.253704 0.000000 33.147579
RightShoulder -1.062216 -31.767065 -19.257287
RightArm 105.742776 11.314420 115.584148
RightForeArm 67.334877 -0.000000 91.450268
RightHand 17.464972 0.000000 -19.796400
RightHandThumb1 -24.326973 -0.000000 -32.862282
LeftUpLeg 16.083154 8.645079 6.116525
LeftLeg 11.308499 -0.000000 -0.000000
LeftFoot -14.752773 -2.364883 -12.430086
LeftToeBase 10.243254 -0.000000 -0.000000
RightUpLeg 23.940748 -16.934513 -18.241668
RightLeg 1.404146 -0.000000 -0.000000
RightFoot -11.252085 7.567127 20.246677
RightToeBase 14.747621 -0.000000 -0.000000
1851
root 0.831417 35.643904 2.963668 -32.660398 -81.444135 19.780033
Spine 7.602487 -1.238644 -6.532340
Head 0.655282 11.560447 -4.659544
LeftShoulder 6.094369 -0.132930 25.259850
LeftArm 93.946561 44.891573 -35.829655
LeftForeArm -40.562870 -0.000000 97.297663
LeftHand -36.361951 -0.000000 24.740474
LeftHandThumb1 -26.253704 0.000000 33.147579
RightShoulder -1.006024 -31.725088 -19.284353
RightArm 105.658152 11.306275 115.567153
RightForeArm 67.214244 -0.000000 90.386617
RightHand 17.559984 0.000000 -19.931712
RightHandThumb1 -24.326973 -0.000000 -32.862282
LeftUpLeg 16.085630 8.650104 6.139082
LeftLeg 11.278470 -0.000000 -0.000000
LeftFoot -14.746301 -2.352880 -12.425373
LeftToeBase 10.234086 -0.000000 -0.000000
RightUpLeg 23.926454 -16.932610 -18.206398
RightLeg 1.382900 -0.000000 -0.000000
RightFoot -11.238258 7.577253 20.232913
RightToeBase 14.736741 -0.000000 -0.000000
1852
root 0.829287 35.644214 2.957981 -32.666407 -81.467239 19.800986
Spine 7.581799 -1.227641 -6.532759
Head 0.662609 11.624506 -4.629241
LeftShoulder 6.116512 -0.122436 25.277445
LeftArm 93.965781 44.885904 -35.782619
LeftForeArm -40.527943 -0.000000 97.317830
LeftHand -36.405171 -0.000000 24.829764
LeftHandThumb1 -26.253704 0.000000 33.147579
RightShoulder -0.987617 -31.702429 -19.286615
RightArm 105.578662 11.336385 115.518357
RightForeArm 67.132447 0.000000 89.315577
RightHand 17.575596 0.000000 -20.025310
RightHandThumb1 -24.326973 -0.000000 -32.862282
LeftUpLeg 16.088251 8.678189 6.159424
LeftLeg 11.256187 -0.000000 -0.000000
LeftFoot -14.736685 -2.353273 -12.432513
LeftToeBase 10.234524 -0.000000 -0.000000
RightUpLeg 23.914373 -16.916300 -18.178470
RightLeg 1.364489 -0.000000 -0.000000
RightFoot -11.239426 7.559757 20.232254
RightToeBase 14.746872 -0.000000 -0.000000
1853
root 0.827610 35.643827 2.952090 -32.614394 -81.487635 19.764914
Spine 7.561635 -1.231153 -6.519841
Head 0.674407 11.711478 -4.605455
LeftShoulder 6.112158 -0.110296 25.295120
LeftArm 93.975781 44.885643 -35.746216
LeftForeArm -40.516817 -0.000000 97.336841
LeftHand -36.385515 -0.000000 24.877005
LeftHandThumb1 -26.253704 0.000000 33.147579
RightShoulder -0.949245 -31.704749 -19.301901
RightArm 105.542426 11.346822 115.482148
RightForeArm 67.033916 0.000000 88.284485
RightHand 17.602720 -0.000000 -20.246133
RightHandThumb1 -24.326973 -0.000000 -32.862282
LeftUpLeg 16.079499 8.675561 6.172123
LeftLeg 11.246843 -0.000000 -0.000000
LeftFoot -14.739194 -2.312062 -12.423048
LeftToeBase 10.216938 -0.000000 -0.000000
RightUpLeg 23.899731 -16.909483 -18.148083
RightLeg 1.353182 -0.000000 -0.000000
RightFoot -11.236393 7.563855 20.247923
RightToeBase 14.782352 -0.000000 -0.000000
1854
root 0.825853 35.643937 2.946712 -32.564201 -81.514154 19.727553
Spine 7.545145 -1.219031 -6.505894
Head 0.681068 11.779561 -4.583403
LeftShoulder 6.107488 -0.092650 25.315170
LeftArm 93.997860 44.876535 -35.698681
LeftForeArm -40.502811 -0.000000 97.341720
LeftHand -36.357579 0.000000 24.890182
LeftHandThumb1 -26.253704 0.000000 33.147579
RightShoulder -0.912256 -31.677797 -19.306599
RightArm 105.473594 11.405946 115.416587
RightForeArm 66.843065 0.000000 87.291652
RightHand 17.671611 -0.000000 -20.528203
RightHandThumb1 -24.326973 -0.000000 -32.862282
LeftUpLeg 16.077558 8.679635 6.192725
LeftLeg 11.235983 -0.000000 -0.000000
LeftFoot -14.736749 -2.300737 -12.428107
LeftToeBase 10.207088 -0.000000 -0.000000
RightUpLeg 23.878021 -16.873280 -18.102859
RightLeg 1.353358 -0.000000 -0.000000
RightFoot -11.247994 7.540947 20.250821
RightToeBase 14.750161 -0.000000 -0.000000
